<?xml version="1.0" standalone="no"?>
<!DOCTYPE svg PUBLIC "-//W3C//DTD SVG 20010904//EN"
 "http://www.w3.org/TR/2001/REC-SVG-20010904/DTD/svg10.dtd">
<svg version="1.0" xmlns="http://www.w3.org/2000/svg"
 width="639.000000pt" height="549.000000pt" viewBox="0 0 639.000000 549.000000"
 preserveAspectRatio="xMidYMid meet">

<g transform="translate(0.000000,549.000000) scale(0.100000,-0.100000)"
fill="#000000" stroke="none">
<path d="M3187 4688 c-8 -18 -54 -125 -102 -238 -131 -307 -408 -951 -460
-1070 -189 -426 -315 -722 -315 -739 0 -5 6 -11 14 -14 16 -6 -7 -26 406 367
173 166 354 338 402 384 63 59 92 81 102 75 8 -4 61 -53 118 -108 86 -83 364
-347 688 -653 63 -60 100 -77 100 -47 0 18 -84 214 -262 609 -88 195 -268 611
-470 1086 -148 348 -163 380 -186 380 -12 0 -25 -12 -35 -32z"/>
<path d="M1061 4089 c40 -81 120 -160 184 -184 47 -18 92 -20 660 -25 493 -4
615 -8 635 -19 14 -7 47 -29 73 -48 46 -32 50 -33 63 -16 7 10 14 22 14 27 0
5 20 52 45 104 l45 96 -32 34 c-18 18 -53 46 -78 60 l-45 27 -798 3 -798 2 32
-61z"/>
<path d="M3840 4141 c-66 -21 -160 -90 -160 -118 0 -9 23 -62 50 -120 28 -57
50 -109 50 -114 0 -15 10 -11 49 20 90 70 41 65 716 71 l610 5 55 26 c30 15
72 42 92 60 38 34 108 142 108 166 0 11 -142 13 -772 12 -425 0 -784 -4 -798
-8z"/>
<path d="M3999 3749 c-50 -9 -79 -24 -124 -62 l-40 -35 33 -73 c18 -41 45
-100 60 -132 l28 -58 19 22 c11 11 38 31 60 43 39 20 55 21 445 26 l405 5 58
28 c62 31 120 91 169 175 22 39 26 53 16 57 -20 7 -1091 11 -1129 4z"/>
<path d="M1317 3743 c-12 -11 46 -107 94 -159 29 -30 72 -62 102 -75 51 -24
59 -24 452 -29 361 -5 404 -7 437 -23 20 -10 44 -27 54 -38 24 -27 37 -24 53
14 8 17 34 73 57 124 l42 91 -27 24 c-15 14 -45 37 -66 51 l-40 27 -576 0
c-317 -1 -579 -4 -582 -7z"/>
<path d="M4460 3350 c-195 -3 -356 -7 -358 -8 -1 -1 -22 -20 -47 -43 l-44 -41
51 -101 c27 -56 52 -104 54 -106 2 -2 16 2 31 9 19 9 95 15 233 20 182 5 210
9 254 28 76 35 114 68 167 150 52 79 60 103 32 100 -10 -1 -178 -5 -373 -8z"/>
<path d="M1600 3343 c0 -17 60 -111 98 -153 22 -26 66 -59 98 -75 58 -29 63
-29 269 -35 124 -4 222 -11 238 -18 16 -7 30 -12 32 -12 3 0 25 44 50 97 54
114 52 126 -22 173 l-47 30 -358 0 c-197 0 -358 -3 -358 -7z"/>
<path d="M2053 2193 l-113 -4 0 -345 0 -345 67 3 66 3 1 125 1 125 41 3 c49 4
51 2 139 -152 l60 -106 68 0 c42 0 67 4 67 11 0 6 -31 66 -70 133 -69 121 -79
146 -60 146 19 0 83 65 97 99 8 19 14 61 14 93 0 76 -29 137 -79 171 -38 25
-125 49 -165 45 -12 -1 -73 -4 -134 -5z m207 -130 c42 -25 53 -88 25 -143 -19
-36 -71 -52 -153 -48 l-57 3 -3 103 -3 102 82 0 c58 0 89 -5 109 -17z"/>
<path d="M2753 2184 c-61 -22 -136 -94 -162 -153 -40 -93 -45 -245 -11 -341
33 -90 112 -161 210 -186 119 -30 229 3 309 93 62 69 76 117 76 258 0 98 -3
116 -26 166 -31 65 -82 120 -142 151 -55 28 -192 35 -254 12z m199 -120 c60
-30 88 -102 88 -223 -1 -122 -36 -191 -113 -220 -66 -25 -157 2 -193 58 -64
96 -54 278 20 358 47 51 127 62 198 27z"/>
<path d="M5322 1850 l3 -345 63 -3 62 -3 1 198 c1 109 1 206 0 216 -1 9 0 17
3 17 3 0 70 -97 147 -215 l142 -216 56 3 56 3 0 345 0 345 -65 0 -65 0 0 -110
c0 -239 -5 -331 -18 -312 -7 10 -34 53 -61 95 -27 42 -85 132 -128 199 l-80
121 -59 4 -59 3 2 -345z"/>
<path d="M837 2148 c-9 -24 -38 -106 -66 -183 -27 -77 -74 -211 -105 -299 -31
-87 -56 -160 -56 -162 0 -2 31 -4 70 -4 l69 0 25 78 24 77 123 0 122 0 24 -77
24 -78 69 0 c39 0 70 4 70 9 0 4 -30 93 -66 197 -36 104 -89 255 -117 337
l-51 147 -72 0 -71 0 -16 -42z m132 -260 c17 -53 31 -102 31 -107 0 -7 -30
-11 -80 -11 -44 0 -80 3 -80 7 0 7 60 195 77 243 4 11 8 8 13 -10 5 -14 22
-69 39 -122z"/>
<path d="M1350 1845 l0 -345 218 2 217 3 3 58 3 57 -151 0 -150 0 0 85 0 85
130 0 130 0 0 60 0 60 -135 0 -135 0 0 78 0 79 146 6 c81 4 148 8 150 9 1 2 4
26 6 53 l3 50 -217 3 -218 2 0 -345z"/>
<path d="M3250 2188 c0 -2 51 -156 114 -343 l113 -340 65 -3 c44 -2 68 1 75
10 12 16 223 643 223 664 0 11 -15 14 -64 14 -58 0 -65 -2 -71 -22 -6 -20 -53
-172 -128 -410 -11 -38 -24 -68 -27 -68 -5 0 -19 44 -105 325 -57 190 -46 175
-126 175 -38 0 -69 -1 -69 -2z"/>
<path d="M3980 1845 l0 -345 65 0 65 0 0 150 0 150 135 0 135 0 0 -150 0 -150
70 0 70 0 0 345 0 345 -70 0 -70 0 0 -137 0 -138 -133 0 -132 0 -3 138 -3 137
-64 0 -65 0 0 -345z"/>
<path d="M4640 2185 c0 -3 47 -99 105 -214 l105 -209 0 -131 0 -132 68 3 67 3
5 135 5 135 95 180 c52 99 100 192 107 207 l12 28 -68 0 c-43 0 -72 -5 -78
-12 -5 -7 -38 -75 -73 -151 -35 -75 -67 -134 -70 -130 -4 5 -36 72 -71 150
l-64 143 -72 0 c-40 0 -73 -2 -73 -5z"/>
</g>
</svg>
